<mxfile host="65bd71144e">
    <diagram id="k93AZ2S6zhg7r6hrerdg" name="Page-1">
        <mxGraphModel dx="836" dy="522" grid="1" gridSize="10" guides="1" tooltips="1" connect="1" arrows="1" fold="1" page="1" pageScale="1" pageWidth="827" pageHeight="1169" math="0" shadow="0">
            <root>
                <mxCell id="0"/>
                <mxCell id="1" parent="0"/>
                <mxCell id="2" value="task name" style="whiteSpace=wrap;html=1;" vertex="1" parent="1">
                    <mxGeometry x="50" y="375" width="120" height="30" as="geometry"/>
                </mxCell>
                <mxCell id="3" value="本阶段加入时间" style="whiteSpace=wrap;html=1;" vertex="1" parent="1">
                    <mxGeometry x="240" y="375" width="120" height="30" as="geometry"/>
                </mxCell>
                <mxCell id="4" value="本阶段预计结束" style="whiteSpace=wrap;html=1;" vertex="1" parent="1">
                    <mxGeometry x="360" y="375" width="120" height="30" as="geometry"/>
                </mxCell>
                <mxCell id="6" value="添加：目标、进度、产出" style="whiteSpace=wrap;html=1;" vertex="1" parent="1">
                    <mxGeometry x="50" y="430" width="420" height="30" as="geometry"/>
                </mxCell>
                <mxCell id="7" value="展示" style="whiteSpace=wrap;html=1;" vertex="1" parent="1">
                    <mxGeometry x="50" y="470" width="290" height="60" as="geometry"/>
                </mxCell>
                <mxCell id="8" value="编辑、删除" style="whiteSpace=wrap;html=1;" vertex="1" parent="1">
                    <mxGeometry x="350" y="470" width="120" height="60" as="geometry"/>
                </mxCell>
                <mxCell id="9" value="项目列表" style="whiteSpace=wrap;html=1;" vertex="1" parent="1">
                    <mxGeometry x="50" y="140" width="120" height="60" as="geometry"/>
                </mxCell>
                <mxCell id="10" value="成员" style="whiteSpace=wrap;html=1;" vertex="1" parent="1">
                    <mxGeometry x="50" y="10" width="120" height="30" as="geometry"/>
                </mxCell>
                <mxCell id="11" value="名、负责人、成员、开始" style="whiteSpace=wrap;html=1;" vertex="1" parent="1">
                    <mxGeometry x="110" y="180" width="430" height="40" as="geometry"/>
                </mxCell>
                <mxCell id="12" value="进度、状态、阶段、阶段开始、阶段结束" style="whiteSpace=wrap;html=1;" vertex="1" parent="1">
                    <mxGeometry x="150" y="240" width="340" height="30" as="geometry"/>
                </mxCell>
                <mxCell id="13" value="season" style="whiteSpace=wrap;html=1;" vertex="1" parent="1">
                    <mxGeometry x="80" y="230" width="75" height="30" as="geometry"/>
                </mxCell>
                <mxCell id="14" value="season" style="whiteSpace=wrap;html=1;" vertex="1" parent="1">
                    <mxGeometry x="170" y="375" width="60" height="30" as="geometry"/>
                </mxCell>
            </root>
        </mxGraphModel>
    </diagram>
</mxfile>